<?xml version="1.0" encoding="UTF-8" standalone="no"?>
<!-- Created with Inkscape (http://www.inkscape.org/) -->

<svg
   width="210mm"
   height="297mm"
   viewBox="0 0 210 297"
   version="1.1"
   id="svg1"
   xml:space="preserve"
   sodipodi:docname="CET 2.svg"
   inkscape:version="1.4 (86a8ad7, 2024-10-11)"
   xmlns:inkscape="http://www.inkscape.org/namespaces/inkscape"
   xmlns:sodipodi="http://sodipodi.sourceforge.net/DTD/sodipodi-0.dtd"
   xmlns:xlink="http://www.w3.org/1999/xlink"
   xmlns="http://www.w3.org/2000/svg"
   xmlns:svg="http://www.w3.org/2000/svg"><sodipodi:namedview
     id="namedview1"
     pagecolor="#ffffff"
     bordercolor="#000000"
     borderopacity="0.25"
     inkscape:showpageshadow="2"
     inkscape:pageopacity="0.0"
     inkscape:pagecheckerboard="0"
     inkscape:deskcolor="#d1d1d1"
     inkscape:document-units="mm"
     showguides="false"
     inkscape:zoom="0.70710678"
     inkscape:cx="460.32652"
     inkscape:cy="570.63518"
     inkscape:window-width="1898"
     inkscape:window-height="1024"
     inkscape:window-x="0"
     inkscape:window-y="0"
     inkscape:window-maximized="0"
     inkscape:current-layer="g8"
     showgrid="false"><sodipodi:guide
       position="106.54461,84.830855"
       orientation="0,-1"
       id="guide3"
       inkscape:locked="false" /><inkscape:grid
       id="grid25"
       units="mm"
       originx="0"
       originy="0"
       spacingx="0.99999998"
       spacingy="1"
       empcolor="#0099e5"
       empopacity="0.30196078"
       color="#0099e5"
       opacity="0.14901961"
       empspacing="5"
       enabled="true"
       visible="false" /></sodipodi:namedview><defs
     id="defs1"><linearGradient
       id="linearGradient14"
       inkscape:collect="always"><stop
         style="stop-color:#008000;stop-opacity:1;"
         offset="0"
         id="stop14" /><stop
         style="stop-color:#00ff00;stop-opacity:1"
         offset="1"
         id="stop15" /></linearGradient><linearGradient
       inkscape:collect="always"
       xlink:href="#linearGradient14"
       id="linearGradient15"
       x1="67.993492"
       y1="131.1106"
       x2="109.85688"
       y2="156.59665"
       gradientUnits="userSpaceOnUse" /></defs><g
     inkscape:label="Layer 1"
     inkscape:groupmode="layer"
     id="layer1"><g
       id="g26"
       transform="matrix(0.97060882,0,0,0.98900078,-47.215261,-27.818442)"><g
         id="g9"
         transform="matrix(5.1598677,0,0,6.3426237,-244.91683,-726.55089)"><path
           style="color:#000000;font-style:normal;font-variant:normal;font-weight:normal;font-stretch:normal;font-size:medium;line-height:normal;font-family:sans-serif;font-variant-ligatures:normal;font-variant-position:normal;font-variant-caps:normal;font-variant-numeric:normal;font-variant-alternates:normal;font-variant-east-asian:normal;font-feature-settings:normal;font-variation-settings:normal;text-indent:0;text-align:start;text-decoration-line:none;text-decoration-style:solid;text-decoration-color:#000000;letter-spacing:normal;word-spacing:normal;text-transform:none;writing-mode:lr-tb;direction:ltr;text-orientation:mixed;dominant-baseline:auto;baseline-shift:baseline;text-anchor:start;white-space:normal;shape-padding:0;shape-margin:0;inline-size:0;clip-rule:nonzero;display:inline;overflow:visible;visibility:visible;isolation:auto;mix-blend-mode:normal;color-interpolation:sRGB;color-interpolation-filters:linearRGB;solid-color:#000000;solid-opacity:1;vector-effect:none;fill:#ffd5d5;fill-opacity:1;fill-rule:nonzero;stroke:none;stroke-linecap:butt;stroke-linejoin:miter;stroke-miterlimit:4;stroke-dasharray:none;stroke-dashoffset:0;stroke-opacity:1;-inkscape-stroke:none;color-rendering:auto;image-rendering:auto;shape-rendering:auto;text-rendering:auto;enable-background:accumulate;stop-color:#000000;stop-opacity:1"
           d="m 74.013691,165.36648 c -114.957,-198.949194 -114.957,-198.949194 0,0 z m -7.02734,-18.82944 c -2.01461,-0.66717 -2.49767,-1.66856 -2.49767,-5.17772 0,-2.88673 0.16971,-3.54689 1.13646,-4.4209 2.0365,-1.84115 5.42039,-0.63148 5.69571,2.03609 l 0.0495,0.47981 c 0,0 -0.50868,0 -0.76302,0 -0.25434,0 -0.76303,0 -0.76303,0 l -0.0525,-0.32805 c -0.30334,-1.897 -3.09953,-2.07156 -3.65367,-0.22808 -0.0301,0.10019 -0.46505,2.07514 0.40038,1.99051 0.34738,-0.034 0.69053,0.0541 0.97227,0.057 0.68541,0.007 -1.30214,-0.009 -1.75892,0.008 -0.85689,0.0324 2.45291,-0.29673 3.52017,0.23386 0.22325,0.11099 0.194,0.28093 0.12307,0.40167 -0.44083,0.75046 -5.1795,0.39018 -2.55303,0.5475 1.10552,0.0662 1.47466,0.18718 0.70171,0.19918 -0.46283,0.008 -0.8923,0.0618 -1.15964,0.0273 -0.74741,-0.0964 -0.30944,1.24816 -0.28548,1.33444 0.53131,1.91274 3.38428,1.82643 3.69421,-0.11177 l 0.0514,-0.32153 h 0.76302 0.76303 l -0.047,0.45584 c -0.20015,1.9392 -2.49211,3.42784 -4.33698,2.81688 z"
           id="path3"
           sodipodi:nodetypes="sssscccasssssssassscccsssss" /></g><g
         id="g7"
         transform="matrix(1.3029542,0,0,3.0408184,-260.54669,-562.347)" /><g
         id="g5"
         transform="matrix(1.5988475,0,0,3.0239867,-417.34576,-582.75672)" /><g
         id="g4"
         transform="matrix(1.5988475,0,0,3.0239867,-398.27684,-586.11529)" /><g
         id="g3"
         transform="translate(31.27465,1.2881041)" /><text
         xml:space="preserve"
         style="font-style:normal;font-variant:normal;font-weight:normal;font-stretch:normal;font-size:12.7px;font-family:Monospace;-inkscape-font-specification:Monospace;text-align:start;writing-mode:lr-tb;direction:ltr;text-anchor:start;fill:#000000;stroke-width:0.264583"
         x="52.62825"
         y="121.3578"
         id="text1"
         transform="matrix(4.7533512,0,0,6.4957301,-275.73563,-759.12668)"><tspan
           sodipodi:role="line"
           id="tspan1"
           x="52.62825"
           y="121.3578"
           style="stroke-width:0.264583" /></text><text
         xml:space="preserve"
         style="font-style:normal;font-variant:normal;font-weight:normal;font-stretch:normal;font-size:12.7px;font-family:Monospace;-inkscape-font-specification:Monospace;text-align:start;writing-mode:lr-tb;direction:ltr;text-anchor:start;fill:#000000;stroke-width:0.264583"
         x="68.177505"
         y="117.40149"
         id="text2"
         transform="matrix(4.7533512,0,0,6.4957301,-275.73563,-759.12668)"><tspan
           sodipodi:role="line"
           id="tspan2"
           x="68.177505"
           y="117.40149"
           style="stroke-width:0.264583" /></text><g
         id="g23"
         transform="matrix(4.7533512,0,0,6.4957301,-275.73563,-759.12668)"><g
           id="g11"><g
             id="g10"
             style="fill:#24221c"><path
               style="fill:url(#linearGradient15);fill-opacity:1"
               d="m 78.444551,167.19483 c -6.249072,-1.40452 -6.057408,-10.17939 0.264211,-12.09624 0.331582,-0.10054 1.226932,-0.337 1.989666,-0.52547 3.094463,-0.76462 4.693226,-1.49705 6.794962,-3.11293 0.79845,-0.61388 2.45104,-1.8114 2.55457,-1.85113 0.42257,-0.16216 0.58528,5.74337 0.21498,7.80261 -1.25803,6.99583 -6.161228,11.05465 -11.818389,9.78316 z m 3.363645,-1.47876 c 4.479904,-0.85715 7.177354,-5.36912 7.177354,-12.00543 0,-1.55955 0.0712,-1.49368 -0.86569,-0.80081 -2.2133,1.63681 -3.755569,2.32976 -6.974175,3.13353 -4.222113,1.05437 -5.70386,2.43258 -5.70386,5.30531 0,0.95746 0.414619,2.50143 0.551362,2.05317 0.04482,-0.14692 0.121514,-0.1905 0.335219,-0.1905 2.386765,0 5.552011,-1.88297 7.898965,-4.699 0.808054,-0.96956 0.585628,-0.97115 1.870919,0.0134 0.0643,0.0493 -0.426937,0.68948 -1.181507,1.53982 -2.17613,2.4523 -4.764118,4.04506 -7.3784,4.54098 -0.812643,0.15416 -0.840807,0.1721 -0.570549,0.36356 1.064996,0.75447 3.131403,1.07292 4.840362,0.74595 z m 10.596684,-6.2089 c 0.0313,-0.45402 0.11213,-1.5494 0.17965,-2.43416 0.34972,-4.58251 0.0976,-6.56168 -1.40133,-11.00183 -1.15876,-3.43243 -1.36903,-4.71781 -1.06424,-6.50588 1.3808,-8.1006 11.22746,-8.81272 15.42326,-1.11542 3.97247,7.28759 0.0338,15.60255 -9.70523,20.48889 -1.13452,0.56922 -3.16252,1.3939 -3.42778,1.3939 -0.0337,0 -0.0356,-0.37147 -0.004,-0.8255 z m 2.7431,-1.95261 c 10.69901,-5.30428 13.84826,-16.22724 6.24123,-21.6473 -2.11483,-1.50683 -4.8019,-1.80331 -3.80322,-0.41964 2.14082,2.96613 3.23768,7.62343 2.6709,11.34072 -0.36423,2.38882 -0.32282,2.31685 -1.20464,2.09351 -0.7304,-0.185 -0.70981,-0.12142 -0.46745,-1.44328 0.8092,-4.41349 -0.67162,-10.07145 -3.22313,-12.31497 -0.48396,-0.42554 -2.33994,1.09978 -3.01974,2.48175 -1.14824,2.33428 -1.09651,3.724 0.29457,7.91299 1.64273,4.94682 1.92691,7.27689 1.45858,11.95917 -0.0639,0.63859 -0.15404,0.63541 1.0529,0.0371 z m 15.07893,-10.20253 c -2.14529,-0.8057 -1.51173,-3.36118 0.9581,-3.86455 1.78271,-0.36333 3.1139,1.06061 2.35879,2.52313 -0.53696,1.04 -2.26195,1.73762 -3.31689,1.34142 z m 1.4214,-1.61817 c 0.47824,-0.22267 0.72157,-0.52512 0.52347,-0.65066 -0.31417,-0.19908 -1.14346,-0.0411 -1.49041,0.28387 -0.53727,0.5033 0.13007,0.75644 0.96694,0.36679 z m -2.08877,-3.39912 c -1.47736,-0.52811 -1.67911,-2.27993 -0.40578,-3.52346 1.64587,-1.60734 4.18307,-1.19791 4.36686,0.70469 0.16591,1.71744 -2.24418,3.4325 -3.96108,2.81877 z m 1.25446,-1.52096 c 1.1703,-0.34754 1.63695,-1.58807 0.54325,-1.44415 -1.20144,0.15809 -2.12305,1.50667 -1.07224,1.56901 0.0498,0.003 0.2878,-0.0532 0.52899,-0.12486 z m -3.18253,-3.51596 c -1.01126,-0.51268 -1.31625,-1.76168 -0.73119,-2.99443 1.24605,-2.62552 4.9007,-2.65884 4.9007,-0.0447 0,2.03483 -2.52302,3.87382 -4.16951,3.03911 z m 1.59725,-1.54609 c 0.66608,-0.35156 1.23155,-1.33297 1.00834,-1.75004 -0.20275,-0.37885 -1.08572,-0.11756 -1.6063,0.47534 -0.91084,1.03739 -0.52218,1.86591 0.59796,1.2747 z m -5.16364,-2.56616 c -1.75908,-0.87658 -1.70062,-3.80527 0.11132,-5.57656 2.61247,-2.55386 5.52831,0.23727 3.83697,3.67286 -0.8411,1.70852 -2.61938,2.56593 -3.94829,1.9037 z m 1.66946,-1.53539 c 0.96894,-0.65074 1.5372,-2.27473 1.092,-3.12075 -0.47805,-0.90842 -1.90056,-0.0475 -2.35985,1.42822 -0.46118,1.48177 0.22257,2.39455 1.26785,1.69253 z m -8.19721,-0.66873 c -2.12318,-0.74283 -2.97357,-3.70973 -1.86395,-6.50304 1.91648,-4.82444 7.27247,-4.27836 7.28091,0.74233 0.006,3.58385 -2.87667,6.64948 -5.41696,5.76071 z m 1.65087,-1.58172 c 1.55283,-0.72312 2.59889,-3.2864 2.11424,-5.18077 -0.82436,-3.22214 -4.53491,-1.00941 -4.54896,2.71271 -0.008,2.04276 1.0486,3.11355 2.43472,2.46806 z"
               id="path1"
               sodipodi:nodetypes="ssssssssssssssssssssscsssssscccsssssssssccsssssscssssscsccssssssssssssssssssssssscs" /><g
               id="g8"
               transform="translate(-28.617102,-31.92379)"
               style="fill:#24221c"><g
                 id="g6"
                 style="fill:#ffd5d5"><rect
                   style="fill:#ffd5d5;fill-opacity:1;stroke-width:0.264583"
                   id="rect3"
                   width="4.6191974"
                   height="1.4963574"
                   x="106.11136"
                   y="174.4234"
                   ry="0" /></g></g><text
               xml:space="preserve"
               style="font-style:normal;font-variant:normal;font-weight:normal;font-stretch:condensed;font-size:17.8614px;font-family:'Gill Sans MT Condensed';-inkscape-font-specification:'Gill Sans MT Condensed,  Condensed';text-align:start;writing-mode:lr-tb;direction:ltr;text-anchor:start;fill:#ffd5d5;fill-opacity:1;stroke-width:0.37211"
               x="70.894371"
               y="173.66879"
               id="text10"
               transform="scale(1.1725902,0.85281287)"><tspan
                 id="tspan10"
                 x="70.894371"
                 y="173.66879"
                 style="font-style:normal;font-variant:normal;font-weight:normal;font-stretch:condensed;font-family:'Gill Sans MT Condensed';-inkscape-font-specification:'Gill Sans MT Condensed,  Condensed';fill:#ffd5d5;fill-opacity:1;stroke-width:0.37211"
                 sodipodi:role="line">T</tspan></text></g><g
             id="g14"
             transform="translate(56.533949,34.06561)"
             style="fill:#ffd5d5"><path
               style="fill:#ffd5d5"
               d="m 15.355163,114.12547 c -2.01461,-0.66717 -2.497667,-1.66856 -2.497667,-5.17772 0,-2.88673 0.169703,-3.54689 1.136454,-4.4209 2.036505,-1.84115 5.420397,-0.63148 5.695715,2.03609 l 0.04952,0.47981 h -0.763024 -0.763024 l -0.05246,-0.32805 c -0.303342,-1.897 -3.099518,-2.07155 -3.653671,-0.22808 -0.149123,0.49608 -0.180357,4.29229 -0.03949,4.79943 0.531309,1.91274 3.384274,1.82643 3.694205,-0.11177 l 0.05141,-0.32153 h 0.763024 0.763024 l -0.04705,0.45584 c -0.200144,1.9392 -2.492108,3.42784 -4.336977,2.81688 z"
               id="path11"
               sodipodi:nodetypes="sssscccsssscccsss" /><g
               id="g13"
               transform="translate(-28.617102,-31.92379)"
               style="fill:#ffd5d5"><g
                 id="g12"
                 style="fill:#ffd5d5" /></g></g></g></g><g
         id="g25"
         transform="translate(35.921025)"><g
           id="g24"
           transform="matrix(4.7533513,0,0,6.49573,-311.65664,-759.12669)" /></g></g></g></svg>
